Coordinates
version=1
nRows=12
nColumns=24
inDegrees=yes

Units are S.I. units (second, meters, Newtons, ...)
Angles are in degrees.

endheader
time	pelvis_tilt	pelvis_list	pelvis_rotation	pelvis_tx	pelvis_ty	pelvis_tz	hip_flexion_r	hip_adduction_r	hip_rotation_r	knee_angle_r	ankle_angle_r	subtalar_angle_r	mtp_angle_r	hip_flexion_l	hip_adduction_l	hip_rotation_l	knee_angle_l	ankle_angle_l	subtalar_angle_l	mtp_angle_l	lumbar_extension	lumbar_bending	lumbar_rotation
      0.70400000	     -2.52969392	      3.54746101	      9.92140483	     -0.08202970	      0.99123622	      0.27387215	     30.99789558	     -4.95690938	     -7.51816126	     -2.70185043	     10.00437333	     -3.07927832	      6.99437877	    -13.75180289	      6.43297907	     11.29776454	    -13.76575773	     16.20300701	     -2.45332929	     -1.29653929	     -6.52246435	     -5.54152076	     -8.82025978
      0.70816667	     -2.55544177	      3.46467834	     10.01393885	     -0.07615106	      0.99057551	      0.27400067	     31.04863313	     -4.87619957	     -7.21902292	     -3.28161480	      9.97573343	     -3.61926255	      7.01689851	    -13.95299952	      6.25684868	     11.29280622	    -13.96189070	     16.06902133	     -2.35269886	     -1.27645485	     -6.40124424	     -5.42529338	     -8.92287648
      0.71233333	     -2.59120698	      3.35765206	     10.12248305	     -0.07021231	      0.98993957	      0.27411955	     31.09072440	     -4.77433227	     -6.94761156	     -3.83426017	      9.83881454	     -4.26512065	      7.05284845	    -14.13240513	      6.05154011	     11.29064190	    -14.17561358	     15.91804287	     -2.24441788	     -1.22952324	     -6.25945356	     -5.27917892	     -9.01427427
      0.71650000	     -2.60483109	      3.25574573	     10.22959138	     -0.06426679	      0.98936321	      0.27426551	     31.09685541	     -4.66667272	     -6.68215008	     -4.36520491	      9.59187206	     -5.01194021	      7.11513700	    -14.31601702	      5.84542255	     11.26109510	    -14.42511031	     15.76219363	     -2.13914002	     -1.13775096	     -6.15727339	     -5.14999444	     -9.09562471
      0.72066667	     -2.61977431	      3.12956899	     10.31573189	     -0.05821787	      0.98880108	      0.27442244	     31.09829993	     -4.52377648	     -6.43683043	     -4.88956776	      9.32449749	     -5.70687199	      7.18652783	    -14.50982274	      5.61828228	     11.22823516	    -14.64411039	     15.55627080	     -2.02395323	     -1.03029450	     -6.01495220	     -4.97159949	     -9.16885114
      0.72483333	     -2.63928864	      3.00023874	     10.41231023	     -0.05215342	      0.98826922	      0.27459453	     31.09625154	     -4.37769727	     -6.22767210	     -5.39682242	      8.96825824	     -6.46598858	      7.27128640	    -14.67820478	      5.38514663	     11.18933557	    -14.90004067	     15.33671150	     -1.91588444	     -0.89701503	     -5.87787214	     -4.80530885	     -9.23415738
      0.72900000	     -2.63959236	      2.88161350	     10.50372570	     -0.04609293	      0.98778860	      0.27480018	     31.06402821	     -4.22906257	     -5.99926454	     -5.88028563	      8.52421097	     -7.32250220	      7.40541989	    -14.84634382	      5.15983916	     11.12352363	    -15.19858661	     15.13580197	     -1.80877931	     -0.68394283	     -5.78182847	     -4.66325748	     -9.28987034
      0.73316667	     -2.65965728	      2.73801216	     10.58476951	     -0.03994609	      0.98731514	      0.27501690	     31.04742288	     -4.05175724	     -5.81204464	     -6.34836846	      8.01946142	     -8.13918000	      7.55425302	    -14.99195519	      4.91367331	     11.05201976	    -15.48860954	     14.87655960	     -1.69917260	     -0.44159418	     -5.62875898	     -4.48080378	     -9.34115475
      0.73733333	     -2.65767421	      2.59764087	     10.65596102	     -0.03376329	      0.98691164	      0.27526102	     30.99707165	     -3.86434994	     -5.62109143	     -6.79225810	      7.45953225	     -8.97788714	      7.83864887	    -15.15710143	      4.66489718	     10.95800584	    -15.77591010	     14.53995772	     -1.53886593	      0.01881505	     -5.49396430	     -4.30152246	     -9.37620191
      0.74150000	     -2.68239466	      2.42782726	     10.73033831	     -0.02756122	      0.98649352	      0.27549141	     30.98009250	     -3.65535652	     -5.49905347	     -7.23270540	      6.81389114	     -9.79326931	      8.02062527	    -15.26314857	      4.39753122	     10.86886364	    -16.12270786	     14.26307895	     -1.48467770	      0.33404384	     -5.33446674	     -4.09002571	     -9.42565995
      0.74566667	     -2.69135635	      2.25471921	     10.79061136	     -0.02131226	      0.98614083	      0.27576271	     30.93851876	     -3.42903097	     -5.37814564	     -7.65208931	      6.11842932	    -10.59452538	      8.20595355	    -15.38160793	      4.12275640	     10.75655459	    -16.46648025	     13.92334499	     -1.38459865	      0.66473228	     -5.17674652	     -3.86727594	     -9.44860417
      0.74983333	     -2.71664193	      2.07762344	     10.84288248	     -0.01504069	      0.98580104	      0.27605008	     30.91675917	     -3.19607815	     -5.26721147	     -8.07142052	      5.38696829	    -11.38128545	      8.40561263	    -15.46482474	      3.85033538	     10.63049614	    -16.83954023	     13.54699763	     -1.28767930	      1.03426270	     -4.99817437	     -3.64723658	     -9.46870240
